<svg width="51" height="51" viewBox="0 0 51 51" fill="none" xmlns="http://www.w3.org/2000/svg">
<path d="M13.8889 44.9444C13.8889 48.0127 11.4016 50.5 8.33333 50.5C5.26508 50.5 2.77778 48.0127 2.77778 44.9444C2.77778 41.8762 5.26508 39.3889 8.33333 39.3889C11.4016 39.3889 13.8889 41.8762 13.8889 44.9444ZM13.8889 44.9444H36.1111C39.1794 44.9444 41.6667 42.4571 41.6667 39.3889V28.2778M36.1111 6.05556C36.1111 9.1238 38.5984 11.6111 41.6667 11.6111C44.7349 11.6111 47.2222 9.1238 47.2222 6.05556C47.2222 2.98731 44.7349 0.5 41.6667 0.5C38.5984 0.5 36.1111 2.98731 36.1111 6.05556ZM36.1111 6.05556H13.8889C10.8206 6.05556 8.33333 8.54286 8.33333 11.6111V22.7222M50 33.8333L42.6488 25.937C42.1064 25.3543 41.227 25.3543 40.6846 25.937L33.3333 33.8333M16.6667 17.1667L9.31542 25.063C8.77303 25.6457 7.89363 25.6457 7.35124 25.063L0 17.1667" stroke="#666666" stroke-linecap="round"/>
</svg>
