<svg width="39" height="41" viewBox="0 0 39 41" fill="none" xmlns="http://www.w3.org/2000/svg">
<path d="M29.6668 15.4123L29.5088 13.2826C29.3641 11.3317 27.6782 9.82018 25.6469 9.82018H21.5085M6.75012 35.9167H4.37206C2.12513 35.9167 0.350073 34.081 0.510161 31.923L1.89293 13.2826C2.03765 11.3317 3.72356 9.82018 5.75483 9.82018H9.89326M9.89326 9.82018V6.0921C9.89326 3.00367 12.4934 0.5 15.7009 0.5C18.9083 0.5 21.5085 3.00367 21.5085 6.09211V9.82018M9.89326 9.82018H21.5085M29.6668 27.5833C29.6668 29.8845 27.8013 31.75 25.5001 31.75C23.1989 31.75 21.3335 29.8845 21.3335 27.5833M17.1668 40.0833H33.8335C36.1346 40.0833 38.0001 38.2179 38.0001 35.9167V25.5C38.0001 23.1988 36.1346 21.3333 33.8335 21.3333H17.1668C14.8656 21.3333 13.0001 23.1988 13.0001 25.5V35.9167C13.0001 38.2179 14.8656 40.0833 17.1668 40.0833Z" stroke="#666666" stroke-linecap="round"/>
</svg>
