<svg width="51" height="41" viewBox="0 0 51 41" fill="none" xmlns="http://www.w3.org/2000/svg">
<path d="M30 33.8333V1.83333C30 1.09695 29.4404 0.5 28.75 0.5H1.25C0.559644 0.5 0 1.09695 0 1.83333V33.8333C0 34.5697 0.559644 35.1667 1.25 35.1667H5M30 33.8333C30 34.5697 29.4404 35.1667 28.75 35.1667H15M30 33.8333V9.83333C30 9.09695 30.5596 8.5 31.25 8.5H39.4822C39.8138 8.5 40.1317 8.64048 40.3661 8.89052L49.6339 18.7761C49.8683 19.0262 50 19.3653 50 19.719V33.8333C50 34.5697 49.4404 35.1667 48.75 35.1667H45M30 33.8333C30 34.5697 30.5596 35.1667 31.25 35.1667H35M5 35.1667C5 38.1122 7.23858 40.5 10 40.5C12.7614 40.5 15 38.1122 15 35.1667M5 35.1667C5 32.2211 7.23858 29.8333 10 29.8333C12.7614 29.8333 15 32.2211 15 35.1667M35 35.1667C35 38.1122 37.2386 40.5 40 40.5C42.7614 40.5 45 38.1122 45 35.1667M35 35.1667C35 32.2211 37.2386 29.8333 40 29.8333C42.7614 29.8333 45 32.2211 45 35.1667" stroke="#666666"/>
</svg>
